<?xml version="1.0" encoding="UTF-8"?>
<svg version="1.1" xmlns="http://www.w3.org/2000/svg" width="479" height="518">
<path d="M0 0 C0 1.32 0 2.64 0 4 C-0.66 4 -1.32 4 -2 4 C-2.27585937 4.57621094 -2.55171875 5.15242188 -2.8359375 5.74609375 C-3.97878266 7.9589181 -5.26870961 9.97502513 -6.625 12.0625 C-12.3894257 21.56102412 -16.65503852 32.41899939 -20 43 C-19.20078125 42.40832031 -18.4015625 41.81664062 -17.578125 41.20703125 C-3.56436299 31.04646281 9.5871162 26.33027142 27 28 C44.61829544 31.31533894 60.24285068 44.95496548 70.8828125 58.8828125 C75.0142568 64.96564008 78.81089483 71.26097393 82.55859375 77.5859375 C83.00517334 78.3392334 83.45175293 79.0925293 83.91186523 79.86865234 C84.95951968 81.92071053 85.54650309 83.74940604 86 86 C81.10160028 86 79.35876818 84.2092942 76 81 C75.236875 80.175 74.47375 79.35 73.6875 78.5 C66.6459019 71.94967619 57.60111299 68.14862404 48 68 C31.90298551 69.25250545 21.36225156 79.61571757 11.14453125 91.30078125 C6.18491998 97.54320637 2.29583177 104.40073828 -1.30078125 111.4921875 C-6.90863364 122.54837902 -13.1339843 132.40450093 -21 142 C-21.50297607 142.61842773 -22.00595215 143.23685547 -22.52416992 143.87402344 C-29.33924986 152.06730013 -37.70111272 157.93433229 -48.43359375 159.3125 C-57.47179229 159.76370492 -64.31314074 156.7689536 -71.0625 150.875 C-87.07727156 135.53796956 -98.573886 120.09193653 -99.40722656 97.35644531 C-99.65674146 78.44965495 -92.59541844 60.11986393 -80 46 C-78.74703125 44.55173828 -78.74703125 44.55173828 -77.46875 43.07421875 C-61.15593632 24.5074506 -38.90323398 12.6574238 -16.25 3.375 C-15.42878662 3.03210938 -14.60757324 2.68921875 -13.76147461 2.3359375 C-8.93392829 0.42699116 -5.18992131 -0.37467346 0 0 Z " fill="#486C05" transform="translate(211,83)"/>
<path d="M0 0 C18.40117532 15.2721143 29.46129162 39.12158635 31.703125 62.84765625 C33.77629756 105.59097409 33.77629756 105.59097409 27.875 124.1875 C23.9541698 122.71508522 22.83570363 120.81196407 21 117.125 C16.43480408 108.40241723 11.29366771 101.25136267 4.48168945 94.17211914 C0.875 90.38824584 0.875 90.38824584 0.875 88.1875 C-0.61 87.6925 -0.61 87.6925 -2.125 87.1875 C-1.96644531 87.98027344 -1.80789063 88.77304687 -1.64453125 89.58984375 C0.45845274 104.15261256 -0.1019891 119.02168631 -8.4375 131.5625 C-21.05059986 148.06886113 -40.10991639 156.71898422 -60.36865234 159.89160156 C-69.88368561 160.91305598 -79.57538155 160.47600811 -89.125 160.1875 C-89.125 159.1975 -89.125 158.2075 -89.125 157.1875 C-87.8875 156.81625 -86.65 156.445 -85.375 156.0625 C-79.31756856 154.03698665 -73.72577193 151.23819979 -68.125 148.1875 C-67.42890625 147.80851563 -66.7328125 147.42953125 -66.015625 147.0390625 C-59.70958873 143.10476554 -55.82052369 136.2868847 -53.75 129.25 C-49.81052302 109.27122389 -59.56845622 88.49233021 -70.44775391 72.20751953 C-71.80759342 70.27547761 -73.18147874 68.35445084 -74.5625 66.4375 C-78.92390132 60.35287693 -82.40742049 54.07114782 -85.625 47.3125 C-86.03419678 46.45688477 -86.44339355 45.60126953 -86.86499023 44.71972656 C-92.14774979 33.28499058 -96.61799826 20.58817521 -92.125 8.1875 C-88.03054367 -0.66180885 -81.61126064 -6.14112888 -72.5625 -9.5625 C-45.88644431 -18.13391556 -22.7434396 -17.39407216 0 0 Z " fill="#486D05" transform="translate(376.125,186.8125)"/>
<path d="M0 0 C0 1.65 0 3.3 0 5 C-0.99 5 -1.98 5 -3 5 C-6.27095042 25.25870974 -6.27095042 25.25870974 1.125 43.875 C10.67373071 54.94512177 24.73261639 59.40035581 38.9375 60.44921875 C40.62446608 60.5392762 42.31204595 60.61839121 44 60.6875 C44.90935303 60.7280249 45.81870605 60.7685498 46.75561523 60.81030273 C53.29811236 61.05249081 59.73017016 60.85209295 66.25756836 60.41577148 C83.53966235 59.27279099 103.44957724 58.00034588 119 67 C119.77859375 67.42023438 120.5571875 67.84046875 121.359375 68.2734375 C127.80404544 72.08548113 131.29148669 76.75398797 133.609375 83.87109375 C136.96290117 102.14781136 129.61188802 120.62533222 119.9375 135.8125 C112.5063047 146.00349185 101.96547416 153.94228246 90 158 C88.87980469 158.38929688 87.75960937 158.77859375 86.60546875 159.1796875 C59.07565896 167.40177281 30.42240513 159.98488809 5.73095703 146.86035156 C-6.85083784 139.92390932 -20.97497063 131.40800802 -31 121 C-31 120.01 -31 119.02 -31 118 C-30.29093506 117.98541748 -29.58187012 117.97083496 -28.85131836 117.95581055 C-6.78252912 118.2875146 -6.78252912 118.2875146 14 112 C13.14277344 111.61328125 12.28554687 111.2265625 11.40234375 110.828125 C-4.73734734 103.47701429 -16.1765745 96.00911864 -23 79 C-29.31767494 58.41802764 -24.14784875 35.84564868 -15 17 C-13.51154313 14.27173799 -11.95901902 11.63825837 -10.28125 9.0234375 C-8.822096 6.7993728 -8.822096 6.7993728 -7.25 3.4375 C-5.29818411 -0.36854098 -4.35315111 0 0 0 Z " fill="#486C05" transform="translate(135,244)"/>
<path d="M0 0 C0 1.32 0 2.64 0 4 C-0.66 4 -1.32 4 -2 4 C-2.27585937 4.57621094 -2.55171875 5.15242188 -2.8359375 5.74609375 C-3.97878266 7.9589181 -5.26870961 9.97502513 -6.625 12.0625 C-12.3894257 21.56102412 -16.65503852 32.41899939 -20 43 C-18.68 42.34 -17.36 41.68 -16 41 C-16.33 41.99 -16.66 42.98 -17 44 C-17.66 44 -18.32 44 -19 44 C-23.09189519 53.35290328 -24.10645995 63.10560635 -24.2109375 73.19921875 C-24.2390196 74.75456757 -24.26768414 76.30990597 -24.296875 77.86523438 C-24.33787667 80.26944521 -24.37484518 82.67346432 -24.40136719 85.07788086 C-24.5215026 95.1454357 -25.19280859 104.26343271 -28 114 C-28.66 114 -29.32 114 -30 114 C-30.08121094 114.88429688 -30.16242188 115.76859375 -30.24609375 116.6796875 C-31.67858624 122.98859225 -36.95356084 127.99176214 -42.26953125 131.49609375 C-48.75165714 134.77924842 -54.65992763 136.26324873 -61.7109375 134.2109375 C-66.71105443 132.33410278 -66.71105443 132.33410278 -69 131 C-69.33 130.01 -69.66 129.02 -70 128 C-70.66 128 -71.32 128 -72 128 C-72 127.34 -72 126.68 -72 126 C-72.99 125.67 -73.98 125.34 -75 125 C-79.23049719 120.66374038 -81.1093652 116.6719044 -83 111 C-83.515625 109.81148438 -84.03125 108.62296875 -84.5625 107.3984375 C-86.42133311 102.4434604 -86.45448618 97.7437909 -86.375 92.5 C-86.36557373 91.53602295 -86.35614746 90.5720459 -86.34643555 89.57885742 C-85.98940448 72.43709899 -82.21006675 58.28003111 -71 45 C-69.948125 43.63875 -69.948125 43.63875 -68.875 42.25 C-66.72339669 39.66807603 -64.40532974 37.34666316 -62 35 C-61.29875 34.236875 -60.5975 33.47375 -59.875 32.6875 C-55.5788814 28.67156305 -50.80397811 25.37900957 -46 22 C-45.35933594 21.53722656 -44.71867187 21.07445313 -44.05859375 20.59765625 C-41.43841838 18.75236983 -40.29218076 18 -37 18 C-37 16.35 -37 14.7 -37 13 C-8.11049107 -0.94308036 -8.11049107 -0.94308036 0 0 Z " fill="#688F25" transform="translate(211,83)"/>
<path d="M0 0 C0.99 1.485 0.99 1.485 2 3 C2.639375 3.2475 3.27875 3.495 3.9375 3.75 C7.81623795 6.10075028 8.6250514 10.87515419 10 15 C11.63391707 27.57002107 6.97444576 36.77657692 -0.25 46.6875 C-2.02861922 48.94075076 -3.85271504 51.08937816 -6 53 C-6.66 53 -7.32 53 -8 53 C-8 53.66 -8 54.32 -8 55 C-10.046875 56.40234375 -10.046875 56.40234375 -12.75 57.9375 C-15.32534678 59.40966461 -17.76169635 60.81238034 -20.09375 62.6484375 C-22.88133615 64.62488178 -25.65733185 64.6785896 -29 65 C-29 65.66 -29 66.32 -29 67 C-36.64753463 69.4535295 -43.60312858 70.52008484 -51.625 70.4375 C-52.66970459 70.42992676 -53.71440918 70.42235352 -54.79077148 70.41455078 C-69.64944643 70.1021686 -82.4908799 65.89917908 -96 60 C-95.505 61.485 -95.505 61.485 -95 63 C-106.39574147 58.71371749 -116.31058421 51.22988285 -126 44 C-127.02609375 43.236875 -128.0521875 42.47375 -129.109375 41.6875 C-134.28630726 37.70974414 -134.28630726 37.70974414 -136 36 C-136 35.01 -136 34.02 -136 33 C-135.29093506 32.98541748 -134.58187012 32.97083496 -133.85131836 32.95581055 C-120.58892004 32.65153339 -107.90931089 32.25260705 -95 29 C-93.3547924 28.66359188 -91.70903279 28.32986095 -90.0625 28 C-86.5647415 27.21398685 -83.32457613 26.04980684 -79.99609375 24.73046875 C-76.72854591 23.5347125 -73.38687983 22.78623996 -70 22 C-70 21.34 -70 20.68 -70 20 C-69.3915625 19.68289063 -68.783125 19.36578125 -68.15625 19.0390625 C-62.26972604 15.90535416 -56.6160189 12.5240334 -51 8.9375 C-36.41163196 -0.30889037 -16.83650594 -9.09171321 0 0 Z " fill="#688F25" transform="translate(240,329)"/>
<path d="M0 0 C10.36719821 -0.62787257 19.88511639 3.02249083 29.5859375 6.26953125 C29.5859375 6.92953125 29.5859375 7.58953125 29.5859375 8.26953125 C30.9471875 8.70265625 30.9471875 8.70265625 32.3359375 9.14453125 C34.90796658 10.03484901 37.19940516 10.98447538 39.5859375 12.26953125 C39.5859375 12.92953125 39.5859375 13.58953125 39.5859375 14.26953125 C40.1428125 14.49640625 40.6996875 14.72328125 41.2734375 14.95703125 C44.24448935 16.64330392 46.23115875 18.79988525 48.5859375 21.26953125 C49.4315625 22.05328125 50.2771875 22.83703125 51.1484375 23.64453125 C53.89320775 26.60043768 55.75682232 29.71102844 57.5859375 33.26953125 C57.8950708 33.85637695 58.2042041 34.44322266 58.52270508 35.04785156 C61.14211212 40.14110594 63.24926483 45.32979134 65.2109375 50.70703125 C65.51 51.50173828 65.8090625 52.29644531 66.1171875 53.11523438 C67.84541739 57.81433732 69.18307321 62.44496501 70.16333008 67.35620117 C70.58290724 69.46202519 70.58290724 69.46202519 71.6484375 72.14453125 C75.07755237 83.57491414 73.76577846 96.31231068 72.7109375 108.01953125 C72.63254639 108.91913574 72.55415527 109.81874023 72.47338867 110.74560547 C71.98315889 115.81523007 71.16150337 120.42367321 69.5859375 125.26953125 C65.6651073 123.79711647 64.54664113 121.89399532 62.7109375 118.20703125 C58.14574158 109.48444848 53.00460521 102.33339392 46.19262695 95.25415039 C42.5859375 91.47027709 42.5859375 91.47027709 42.5859375 89.26953125 C41.9259375 88.93953125 41.2659375 88.60953125 40.5859375 88.26953125 C39.8846875 87.36203125 39.1834375 86.45453125 38.4609375 85.51953125 C35.82976778 82.23254445 32.81466368 80.37418532 29.16015625 78.34765625 C28.64066406 77.991875 28.12117188 77.63609375 27.5859375 77.26953125 C27.5859375 76.60953125 27.5859375 75.94953125 27.5859375 75.26953125 C26.6371875 74.96015625 25.6884375 74.65078125 24.7109375 74.33203125 C21.5859375 73.26953125 21.5859375 73.26953125 19.5859375 72.26953125 C19.5859375 71.60953125 19.5859375 70.94953125 19.5859375 70.26953125 C18.95945312 70.07617188 18.33296875 69.8828125 17.6875 69.68359375 C16.87023437 69.42320312 16.05296875 69.1628125 15.2109375 68.89453125 C13.99277344 68.51167969 13.99277344 68.51167969 12.75 68.12109375 C10.5859375 67.26953125 10.5859375 67.26953125 8.5859375 65.26953125 C6.94275482 64.59884444 5.29955539 63.92819859 3.65625 63.2578125 C0.44780739 61.72623518 -2.39107523 59.70298417 -5.30078125 57.671875 C-7.28384021 56.35594493 -9.28857419 55.33000943 -11.4140625 54.26953125 C-12.4334744 53.2893275 -13.43652606 52.29150117 -14.4140625 51.26953125 C-15.0740625 50.93953125 -15.7340625 50.60953125 -16.4140625 50.26953125 C-16.8471875 49.52703125 -17.2803125 48.78453125 -17.7265625 48.01953125 C-19.29034403 45.15170889 -19.29034403 45.15170889 -21.9140625 43.14453125 C-28.36264458 35.72866186 -27.81414203 25.58990257 -27.4140625 16.26953125 C-26.7540625 16.26953125 -26.0940625 16.26953125 -25.4140625 16.26953125 C-25.0840625 14.28953125 -24.7540625 12.30953125 -24.4140625 10.26953125 C-23.7540625 10.26953125 -23.0940625 10.26953125 -22.4140625 10.26953125 C-22.4140625 9.60953125 -22.4140625 8.94953125 -22.4140625 8.26953125 C-19.45924758 5.52577454 -18.63934342 5.26953125 -14.4140625 5.26953125 C-14.4140625 4.60953125 -14.4140625 3.94953125 -14.4140625 3.26953125 C-9.63809786 1.09863823 -5.17194059 0.57744968 0 0 Z " fill="#688F25" transform="translate(334.4140625,185.73046875)"/>
<path d="M0 0 C1 3 1 3 0.36328125 4.83203125 C0.01652344 5.48558594 -0.33023438 6.13914062 -0.6875 6.8125 C-1.06132812 7.52277344 -1.43515625 8.23304687 -1.8203125 8.96484375 C-3 11 -3 11 -5.0625 13.875 C-7.254017 17.40970483 -8.19068886 20.70458107 -9.28125 24.6875 C-10 27 -10 27 -11.5625 29.5625 C-13.21533817 32.36513864 -13.7882683 35.03598928 -14.3984375 38.2109375 C-15 41 -15 41 -15.9765625 44.2265625 C-19.71166138 56.99038961 -19.8242871 69.76700091 -20 83 C-22 82 -22 82 -22.8515625 80.26953125 C-25.01645203 73.39218018 -25.29257482 66.77638146 -25.3125 59.625 C-25.31781738 58.66182861 -25.32313477 57.69865723 -25.32861328 56.70629883 C-25.28173076 52.00283032 -25.12323271 48.2863758 -23 44 C-22.65247452 42.61247235 -22.33896996 41.21591416 -22.0625 39.8125 C-21.00363198 34.78075915 -19.53574552 29.90414736 -18 25 C-17.34 25 -16.68 25 -16 25 C-15.9175 24.29875 -15.835 23.5975 -15.75 22.875 C-14.24274117 17.09717447 -9.93860356 12.52298447 -6.3671875 7.83203125 C-5.19304359 6.25867841 -4.08897313 4.6334597 -3 3 C-2.34 3 -1.68 3 -1 3 C-0.67 2.01 -0.34 1.02 0 0 Z " fill="#4D7209" transform="translate(176,115)"/>
<path d="M0 0 C0 1.32 0 2.64 0 4 C-0.67804688 4.3403125 -1.35609375 4.680625 -2.0546875 5.03125 C-8.29507077 8.28108949 -13.65356061 11.88960218 -19.00390625 16.4609375 C-21 18 -21 18 -23 18 C-23.226875 18.556875 -23.45375 19.11375 -23.6875 19.6875 C-25.00653012 22.01150545 -26.5288798 23.55187553 -28.44140625 25.390625 C-36.12313653 33.32263722 -41.17704493 42.18184147 -46 52 C-47.32 51.34 -48.64 50.68 -50 50 C-49.67 51.32 -49.34 52.64 -49 54 C-50.32 54 -51.64 54 -53 54 C-53.268125 54.721875 -53.53625 55.44375 -53.8125 56.1875 C-54.98982498 58.97590126 -56.39145884 61.44095724 -58 64 C-58.66 63.67 -59.32 63.34 -60 63 C-52.79145387 41.51925702 -26.31770766 0 0 0 Z " fill="#496E07" transform="translate(174,97)"/>
<path d="M0 0 C9.53188965 1.66026766 17.43026642 4.56210225 26 9 C26 9.66 26 10.32 26 11 C26.86625 11.185625 27.7325 11.37125 28.625 11.5625 C32.4750639 13.20234203 33.83078077 14.85874484 36.3515625 18.06640625 C38.15549993 20.1823992 40.10673071 21.85699627 42.25 23.625 C45.2440363 26.15621771 47.04698023 28.06879345 48 32 C48.66 32 49.32 32 50 32 C51.65625 34.30078125 51.65625 34.30078125 53.5 37.3125 C54.1084375 38.29863281 54.716875 39.28476563 55.34375 40.30078125 C55.8903125 41.19152344 56.436875 42.08226562 57 43 C57.66 43.99 58.32 44.98 59 46 C60.50018704 49.71098899 61.4727491 52.17085234 60 56 C59.01 55.505 59.01 55.505 58 55 C57.26924352 52.6859378 56.59861742 50.35171131 56 48 C55.34 48 54.68 48 54 48 C53.7525 47.4225 53.505 46.845 53.25 46.25 C52.09586623 43.92988888 52.09586623 43.92988888 50.1875 42.1875 C48.35082792 40.35082792 47.02171059 38.6824852 45.5625 36.5625 C42.48458337 32.16145457 38.85916356 28.67137465 34.6875 25.3125 C33.800625 24.549375 32.91375 23.78625 32 23 C32 22.34 32 21.68 32 21 C31.45472656 20.75765625 30.90945313 20.5153125 30.34765625 20.265625 C27.45266465 18.70493069 25.02709045 16.77753554 22.4375 14.75 C15.48174106 9.41240988 8.18871492 5.14950574 0 2 C0 1.34 0 0.68 0 0 Z " fill="#4B7208" transform="translate(328,208)"/>
<path d="M0 0 C-1.13086338 3.39259014 -2.20932463 4.33037102 -4.875 6.625 C-5.92300781 7.54152344 -5.92300781 7.54152344 -6.9921875 8.4765625 C-9 10 -9 10 -12 11 C-12 11.66 -12 12.32 -12 13 C-16.21765319 14.99503228 -20.43750878 16.9848294 -24.6640625 18.9609375 C-27.02767542 20.06677428 -29.37536018 21.18713923 -31.7109375 22.3515625 C-41.47933368 27.1086625 -52.19621283 27.31031898 -62.875 27.1875 C-63.96296875 27.18685547 -65.0509375 27.18621094 -66.171875 27.18554688 C-71.21377908 27.15781024 -76.04958533 27.07805198 -81 26 C-81 25.34 -81 24.68 -81 24 C-80.20529297 23.93006836 -79.41058594 23.86013672 -78.59179688 23.78808594 C-60.61758036 22.16967791 -43.92192044 19.8924601 -26.7734375 13.94921875 C-22.55382992 12.5050432 -18.28043585 11.25003879 -14 10 C-14 9.34 -14 8.68 -14 8 C-12.3203125 6.7109375 -12.3203125 6.7109375 -10.125 5.375 C-9.40570313 4.92898438 -8.68640625 4.48296875 -7.9453125 4.0234375 C-6 3 -6 3 -4 3 C-4 2.34 -4 1.68 -4 1 C-2 0 -2 0 0 0 Z " fill="#4B7107" transform="translate(230,349)"/>
<path d="M0 0 C0 1.65 0 3.3 0 5 C-0.99 5 -1.98 5 -3 5 C-5.08235078 18.23780136 -6.74054357 30.69118131 0 43 C-2.46435746 42.02872285 -3.76752207 41.35720418 -5.23046875 39.109375 C-8.3136038 31.50850329 -10.66538272 21.99614815 -8 14 C-8.99 14.495 -8.99 14.495 -10 15 C-10.33 15.99 -10.66 16.98 -11 18 C-11.66 18.33 -12.32 18.66 -13 19 C-14.09363275 21.3031668 -15.07253988 23.56808676 -16 25.9375 C-16.2683667 26.61466064 -16.5367334 27.29182129 -16.81323242 27.98950195 C-18.84144848 33.25661342 -20.11884929 38.42645633 -21 44 C-21.49550568 46.21164729 -21.98422306 47.96844612 -23 50 C-23.66 49.67 -24.32 49.34 -25 49 C-22.79480385 34.57171662 -18.19614117 21.35887959 -10.28125 9.0234375 C-8.822096 6.7993728 -8.822096 6.7993728 -7.25 3.4375 C-5.29818411 -0.36854098 -4.35315111 0 0 0 Z " fill="#55711B" transform="translate(135,244)"/>
<path d="M0 0 C0.99 0.66 1.98 1.32 3 2 C2.24976563 2.70382813 1.49953125 3.40765625 0.7265625 4.1328125 C-11.23944655 15.57334056 -18.94355957 27.60360913 -26.37866211 42.35913086 C-29.65729095 48.74688622 -33.23766635 54.64164998 -37.5625 60.375 C-38.06313965 61.04063965 -38.5637793 61.7062793 -39.07958984 62.39208984 C-42.57777165 66.85925722 -42.57777165 66.85925722 -46 68 C-46 67.01 -46 66.02 -46 65 C-45.01 64.505 -45.01 64.505 -44 64 C-43.34444881 61.47266765 -43.34444881 61.47266765 -43 59 C-42.34 59 -41.68 59 -41 59 C-40.731875 58.236875 -40.46375 57.47375 -40.1875 56.6875 C-39.04865495 54.11011382 -38.18583329 52.73045136 -36 51 C-35.34 51 -34.68 51 -34 51 C-33.62875 49.700625 -33.62875 49.700625 -33.25 48.375 C-32 45 -32 45 -30.13671875 42.22265625 C-27.95526956 38.93253636 -26.2651367 35.62112868 -24.5625 32.0625 C-22.10145028 26.99629699 -19.39395909 22.49200468 -16 18 C-15.67 17.01 -15.34 16.02 -15 15 C-13.5625 13.3125 -13.5625 13.3125 -12 12 C-11.34 12 -10.68 12 -10 12 C-9.34 10.35 -8.68 8.7 -8 7 C-7.01 7 -6.02 7 -5 7 C-4.9175 6.401875 -4.835 5.80375 -4.75 5.1875 C-3.79544128 2.4033704 -2.42867729 1.56688858 0 0 Z " fill="#516C18" transform="translate(233,158)"/>
<path d="M0 0 C0 1.32 0 2.64 0 4 C-0.67804688 4.3403125 -1.35609375 4.680625 -2.0546875 5.03125 C-8.29507077 8.28108949 -13.65356061 11.88960218 -19.00390625 16.4609375 C-21 18 -21 18 -23 18 C-23.2475 18.639375 -23.495 19.27875 -23.75 19.9375 C-25 22 -25 22 -26.8125 22.625 C-27.534375 22.74875 -28.25625 22.8725 -29 23 C-33.75275627 24.21865545 -35.38815706 26.55113017 -37.88671875 30.5390625 C-38.25410156 31.02117187 -38.62148437 31.50328125 -39 32 C-39.66 32 -40.32 32 -41 32 C-41 33.65 -41 35.3 -41 37 C-41.639375 37.28875 -42.27875 37.5775 -42.9375 37.875 C-45.15206079 38.82823451 -45.15206079 38.82823451 -46 41 C-46.66 41 -47.32 41 -48 41 C-46.52272041 30.82583252 -33.39039525 20.74133875 -25.625 14.6875 C-20.55260531 10.95401153 -15.29501279 7.64273018 -9.875 4.4375 C-9.12814941 3.99559326 -8.38129883 3.55368652 -7.61181641 3.09838867 C-2.2606705 0 -2.2606705 0 0 0 Z " fill="#526E15" transform="translate(174,97)"/>
<path d="M0 0 C0 1.32 0 2.64 0 4 C-0.66 4 -1.32 4 -2 4 C-2.27585938 4.57621094 -2.55171875 5.15242188 -2.8359375 5.74609375 C-3.97878266 7.9589181 -5.26870961 9.97502513 -6.625 12.0625 C-10.15923549 17.86316169 -12.66033394 24.02860406 -15.19580078 30.31079102 C-16.86524742 34.42571286 -18.55433226 38.26713871 -21 42 C-21.97099482 39.37831399 -22.06599958 38.20307562 -21.1875 35.5 C-20.48389443 34.01872511 -19.74598592 32.55173986 -18.9375 31.125 C-17.8272403 28.9062847 -17.8272403 28.9062847 -17.6875 25.875 C-16.42154857 18.73963741 -12.839159 12.37684333 -8 7 C-8.99 6.67 -9.98 6.34 -11 6 C-10.67 5.67 -10.34 5.34 -10 5 C-13.02419525 5.58803797 -16.01758453 6.22678118 -19 7 C-19.33 6.34 -19.66 5.68 -20 5 C-6.3667426 -0.74031891 -6.3667426 -0.74031891 0 0 Z " fill="#6C9C37" transform="translate(211,83)"/>
<path d="M0 0 C4.07934427 3.57536934 6.50544682 7.86055999 9.1875 12.5 C9.63802734 13.25925781 10.08855469 14.01851562 10.55273438 14.80078125 C12.53712377 18.19834151 14.18925963 21.11883063 15 25 C10.0936687 25 8.36811255 23.20232463 5 20 C4.154375 19.13375 3.30875 18.2675 2.4375 17.375 C0.09484732 14.91033631 0.09484732 14.91033631 -2.8125 13.3125 C-3.534375 12.879375 -4.25625 12.44625 -5 12 C-5 11.34 -5 10.68 -5 10 C-3.68 9.67 -2.36 9.34 -1 9 C-0.01 10.485 -0.01 10.485 1 12 C2.36884358 7.48281619 1.47075246 4.41225737 0 0 Z " fill="#4D6B10" transform="translate(282,144)"/>
<path d="M0 0 C0.22429687 0.63421875 0.44859375 1.2684375 0.6796875 1.921875 C1.83785757 4.22016157 1.83785757 4.22016157 4.3828125 4.828125 C5.28773438 4.96734375 6.19265625 5.1065625 7.125 5.25 C8.03507812 5.39953125 8.94515625 5.5490625 9.8828125 5.703125 C10.93082031 5.85007812 10.93082031 5.85007812 12 6 C10 8 10 8 7.38623047 8.22705078 C6.30744629 8.21657715 5.22866211 8.20610352 4.1171875 8.1953125 C2.95058594 8.18886719 1.78398437 8.18242187 0.58203125 8.17578125 C-0.64128906 8.15902344 -1.86460937 8.14226562 -3.125 8.125 C-4.35605469 8.11597656 -5.58710938 8.10695313 -6.85546875 8.09765625 C-9.90383815 8.07402548 -12.95182382 8.04108054 -16 8 C-16 7.01 -16 6.02 -16 5 C-15.40832031 4.80664062 -14.81664062 4.61328125 -14.20703125 4.4140625 C-10.78753552 3.28724661 -7.40160155 2.16234956 -4.0625 0.8125 C-2 0 -2 0 0 0 Z " fill="#46610F" transform="translate(303,339)"/>
<path d="M0 0 C2.40574276 2.40574276 2.45696282 3.63564003 3 6.9375 C3.57459711 10.42099497 3.99063817 11.98595726 6 15 C6.62564353 19.6451081 6.78110456 24.31980703 7 29 C7.05414063 29.78632813 7.10828125 30.57265625 7.1640625 31.3828125 C7.45183391 37.84458881 5.55313975 43.67029037 2 49 C1.34 49 0.68 49 0 49 C0.60699915 45.66445129 1.45475636 42.57514831 2.5625 39.375 C6.56067839 26.16533218 2.43784964 13.53800239 -2 1 C-1.34 0.67 -0.68 0.34 0 0 Z " fill="#516D18" transform="translate(319,278)"/>
<path d="M0 0 C8.58911431 -0.55010339 14.31530411 4.58721896 20.53125 10.03125 C29.28420487 17.92630731 29.28420487 17.92630731 32 22 C27.26100166 22 26.31449596 21.22727238 23 18 C22.67 17.13375 22.34 16.2675 22 15.375 C21.21435394 12.75514256 21.21435394 12.75514256 18.5 11.875 C17.2625 11.441875 17.2625 11.441875 16 11 C15.34 10.01 14.68 9.02 14 8 C13.01 7.67 12.02 7.34 11 7 C11 6.34 11 5.68 11 5 C5.52225234 3.41678933 5.52225234 3.41678933 0 2 C0 1.34 0 0.68 0 0 Z " fill="#526F17" transform="translate(246,116)"/>
<path d="M0 0 C11.82784997 0.77138152 22.78922898 8.64660167 30.87109375 16.9140625 C31.97175013 18.22986134 32.99953752 19.60649869 34 21 C32.35 20.67 30.7 20.34 29 20 C29 19.01 29 18.02 29 17 C28.34 17 27.68 17 27 17 C27 16.34 27 15.68 27 15 C25.68 14.67 24.36 14.34 23 14 C23 13.34 23 12.68 23 12 C22.41806885 11.87093262 21.8361377 11.74186523 21.23657227 11.60888672 C17.57398396 10.61177994 14.31907356 8.82339608 10.9375 7.125 C10.21755859 6.77308594 9.49761719 6.42117187 8.75585938 6.05859375 C8.06169922 5.71183594 7.36753906 5.36507812 6.65234375 5.0078125 C6.02320068 4.69473145 5.39405762 4.38165039 4.74584961 4.05908203 C2.86059981 2.91543588 1.49295339 1.61361636 0 0 Z " fill="#4E6915" transform="translate(351,175)"/>
<path d="M0 0 C4.91295159 8.00556654 1.96924951 19.68604175 -0.05078125 28.2578125 C-1.00190302 31.0054976 -2.12266063 32.80188276 -4 35 C-4.20016264 30.29617793 -3.64739648 26.54768085 -2.5078125 21.94921875 C-1.65819921 17.01492621 -1.53533663 12.02948967 -1.34204102 7.03198242 C-1.09582356 1.09582356 -1.09582356 1.09582356 0 0 Z " fill="#516C15" transform="translate(267,326)"/>
<path d="M0 0 C0.66 0.33 1.32 0.66 2 1 C1.71937057 3.48088355 1.42609401 5.95909185 1.125 8.4375 C1.00705078 9.49807617 1.00705078 9.49807617 0.88671875 10.58007812 C0.66072324 12.39673432 0.33699273 14.20062522 0 16 C-0.66 16.33 -1.32 16.66 -2 17 C-5.33511388 14.0098979 -7.21521119 11.10501426 -9 7 C-9 6.34 -9 5.68 -9 5 C-8.34 5 -7.68 5 -7 5 C-7 5.99 -7 6.98 -7 8 C-5.68 8.33 -4.36 8.66 -3 9 C-3.061875 7.88625 -3.12375 6.7725 -3.1875 5.625 C-3.125625 4.42875 -3.06375 3.2325 -3 2 C-2.01 1.34 -1.02 0.68 0 0 Z " fill="#6E8A31" transform="translate(405,294)"/>
<path d="M0 0 C4.17726866 4.17726866 3.18345371 10.19849579 3.1875 15.75 C3.19974609 16.61882812 3.21199219 17.48765625 3.22460938 18.3828125 C3.23711476 23.93520256 2.56777848 28.6707925 1 34 C-1.1192907 30.50940355 -1.1192907 30.50940355 -0.56640625 28.1484375 C-0.37949219 27.43945312 -0.19257813 26.73046875 0 26 C0.72974307 14.70364287 0.72974307 14.70364287 -2 4 C-1.34 4 -0.68 4 0 4 C0 2.68 0 1.36 0 0 Z " fill="#4D671B" transform="translate(372,274)"/>
<path d="M0 0 C1.484375 1.2578125 1.484375 1.2578125 3 3 C3.12375 4.918125 3.12375 4.918125 3.25 6.875 C3.89133303 15.18503859 8.92449104 23.45499286 15 29 C16.75 30.625 16.75 30.625 18 32 C18 32.66 18 33.32 18 34 C18.66 34 19.32 34 20 34 C20 34.99 20 35.98 20 37 C20.66 37 21.32 37 22 37 C21.67 37.99 21.34 38.98 21 40 C11.1320326 29.38873116 0.50801564 17.19237528 -0.125 2 C-0.08375 1.34 -0.0425 0.68 0 0 Z " fill="#496316" transform="translate(113,188)"/>
<path d="M0 0 C13.67563753 1.54990559 24.69606395 3.48614617 36 12 C36.495 12.99 36.495 12.99 37 14 C35.35 14 33.7 14 32 14 C31.67 13.01 31.34 12.02 31 11 C22.0638972 6.25005261 12.14009765 3.24098952 2 3 C1.01 3.495 1.01 3.495 0 4 C0 2.68 0 1.36 0 0 Z " fill="#3E570C" transform="translate(226,304)"/>
<path d="M0 0 C0 1.65 0 3.3 0 5 C-0.99 5 -1.98 5 -3 5 C-3.04898438 5.62648437 -3.09796875 6.25296875 -3.1484375 6.8984375 C-3.22320312 7.71570313 -3.29796875 8.53296875 -3.375 9.375 C-3.44460937 10.18710938 -3.51421875 10.99921875 -3.5859375 11.8359375 C-4 14 -4 14 -6 16 C-6.33 14.02 -6.66 12.04 -7 10 C-7.99 10 -8.98 10 -10 10 C-8.33435265 3.8926264 -6.78451913 0 0 0 Z " fill="#5D7726" transform="translate(135,244)"/>
<path d="M0 0 C0.99 0.495 0.99 0.495 2 1 C2.48910648 3.48176251 2.84883386 5.86764985 3.125 8.375 C3.20919189 9.10090332 3.29338379 9.82680664 3.38012695 10.57470703 C4.39152576 19.8361279 4.12262291 28.75840779 3 38 C2.67 38 2.34 38 2 38 C1.44516408 32.78850546 0.92764981 27.62038874 1 22.375 C1.09701037 14.90520119 0.48399459 7.45005965 0 0 Z " fill="#5A7920" transform="translate(404,255)"/>
<path d="M0 0 C1.21042969 -0.01836914 1.21042969 -0.01836914 2.4453125 -0.03710938 C3.61707031 -0.04000977 3.61707031 -0.04000977 4.8125 -0.04296875 C5.52019531 -0.04707764 6.22789062 -0.05118652 6.95703125 -0.05541992 C9.35937477 0.23023158 10.94667243 0.92115142 13 2.1875 C13.33 2.8475 13.66 3.5075 14 4.1875 C13.0925 4.0225 12.185 3.8575 11.25 3.6875 C2.85076594 2.49732513 -5.62902935 3.07137058 -14 4.1875 C-13.67 3.1975 -13.34 2.2075 -13 1.1875 C-8.86353754 -0.36759903 -4.35722727 0.00348021 0 0 Z " fill="#546F16" transform="translate(229,110.8125)"/>
<path d="M0 0 C0.99 0.33 1.98 0.66 3 1 C1.66206183 5.44648108 -0.09677079 9.2430743 -2.4375 13.25 C-3.03433594 14.28640625 -3.63117188 15.3228125 -4.24609375 16.390625 C-6 19 -6 19 -9 21 C-10 18 -10 18 -9.0625 15.8125 C-8.5365625 14.9153125 -8.5365625 14.9153125 -8 14 C-7.34 14 -6.68 14 -6 14 C-6 13.34 -6 12.68 -6 12 C-5.34 12 -4.68 12 -4 12 C-3.86722656 11.42765625 -3.73445313 10.8553125 -3.59765625 10.265625 C-3.00619683 8.02349125 -2.26711146 5.91420381 -1.4375 3.75 C-1.16808594 3.04359375 -0.89867187 2.3371875 -0.62109375 1.609375 C-0.41613281 1.07828125 -0.21117187 0.5471875 0 0 Z " fill="#526F1A" transform="translate(260,362)"/>
<path d="M0 0 C0.33 0 0.66 0 1 0 C2.93915661 10.76924476 3.22256188 21.09446805 3 32 C2.67 32 2.34 32 2 32 C1.87882812 30.87980469 1.75765625 29.75960938 1.6328125 28.60546875 C1.46396733 27.13276364 1.29467303 25.66010996 1.125 24.1875 C1.04636719 23.44951172 0.96773438 22.71152344 0.88671875 21.95117188 C0.45539714 18.28493819 0.0803217 16.12048255 -2 13 C-2.25 10.4375 -2.25 10.4375 -2 8 C-1.34 7.34 -0.68 6.68 0 6 C0.16681109 2.91652174 0.16681109 2.91652174 0 0 Z " fill="#4B6715" transform="translate(405,240)"/>
<path d="M0 0 C1 3 1 3 0.36328125 4.8671875 C-1.7637822 8.93153922 -3.95820498 12.52366284 -7 16 C-7.33 15.34 -7.66 14.68 -8 14 C-9.65 15.32 -11.3 16.64 -13 18 C-11.61765196 15.0292809 -9.99846608 12.53050974 -8 9.9375 C-6.24878722 7.65654536 -4.59742149 5.39613223 -3 3 C-2.34 3 -1.68 3 -1 3 C-0.67 2.01 -0.34 1.02 0 0 Z " fill="#537A10" transform="translate(176,115)"/>
<path d="M0 0 C1.65 0 3.3 0 5 0 C5.33 0.66 5.66 1.32 6 2 C7.97888961 2.72693904 9.97954558 3.39816251 12 4 C12 4.66 12 5.32 12 6 C12.94875 6.309375 13.8975 6.61875 14.875 6.9375 C18 8 18 8 20 9 C20.625 11.0625 20.625 11.0625 21 13 C17.08237209 11.54261356 13.55329789 9.71859726 9.9375 7.625 C8.91527344 7.03976562 7.89304688 6.45453125 6.83984375 5.8515625 C4.17692234 4.11535239 2.14296554 2.33310877 0 0 Z " fill="#58751E" transform="translate(124,379)"/>
<path d="M0 0 C0.66 0 1.32 0 2 0 C2 1.32 2 2.64 2 4 C2.66 4 3.32 4 4 4 C4.226875 4.66 4.45375 5.32 4.6875 6 C5.82692117 8.60439125 7.0559097 10.65303207 8.625 13 C10.64701132 16.13085624 11.59672814 18.1809399 11 22 C11.66 22 12.32 22 13 22 C13.33 23.65 13.66 25.3 14 27 C11.11226051 24.31661064 9.1792961 21.86286828 7.421875 18.33984375 C6.98359375 17.46392578 6.5453125 16.58800781 6.09375 15.68554688 C5.42859375 14.32526367 5.42859375 14.32526367 4.75 12.9375 C4.29109375 12.02677734 3.8321875 11.11605469 3.359375 10.17773438 C0 3.39399647 0 3.39399647 0 0 Z " fill="#4B641A" transform="translate(287,224)"/>
<path d="M0 0 C0.66 0.33 1.32 0.66 2 1 C1.43410156 1.33773437 0.86820312 1.67546875 0.28515625 2.0234375 C-0.44832031 2.46945313 -1.18179687 2.91546875 -1.9375 3.375 C-3.03384766 4.03628906 -3.03384766 4.03628906 -4.15234375 4.7109375 C-6.13772272 5.8773984 -6.13772272 5.8773984 -7 8 C-7.66 8 -8.32 8 -9 8 C-9 8.99 -9 9.98 -9 11 C-9.66 11 -10.32 11 -11 11 C-11.20496094 11.62648437 -11.40992188 12.25296875 -11.62109375 12.8984375 C-11.89050781 13.71570313 -12.15992188 14.53296875 -12.4375 15.375 C-12.70433594 16.18710938 -12.97117187 16.99921875 -13.24609375 17.8359375 C-14 20 -14 20 -15 22 C-15.66 22 -16.32 22 -17 22 C-16.42401485 14.32019795 -12.45456719 9.07691766 -6.875 4.0625 C-4.46716311 2.00600118 -3.04591153 1.01530384 0 0 Z " fill="#567024" transform="translate(300,179)"/>
<path d="M0 0 C1.00023193 0.00523682 2.00046387 0.01047363 3.03100586 0.01586914 C4.1105957 0.0190918 5.19018555 0.02231445 6.30249023 0.02563477 C8.00695312 0.03820312 8.00695312 0.03820312 9.74584961 0.05102539 C11.45611328 0.05779297 11.45611328 0.05779297 13.20092773 0.06469727 C16.02845312 0.07652792 18.85587601 0.09301129 21.68334961 0.11352539 C18.86421815 2.93265685 16.02714932 2.49258072 12.24584961 2.61352539 C6.68020749 2.73372976 6.68020749 2.73372976 1.68334961 5.11352539 C1.22959961 4.63915039 0.77584961 4.16477539 0.30834961 3.67602539 C-1.24923243 2.02324732 -1.24923243 2.02324732 -3.31665039 1.11352539 C-2.31665039 0.11352539 -2.31665039 0.11352539 0 0 Z " fill="#709039" transform="translate(106.316650390625,361.886474609375)"/>
<path d="M0 0 C-0.33 0.99 -0.66 1.98 -1 3 C-3.00390625 3.7734375 -3.00390625 3.7734375 -5.5625 4.375 C-10.1347973 5.59340587 -13.4951834 7.33888063 -17.30859375 10.109375 C-17.86675781 10.40328125 -18.42492187 10.6971875 -19 11 C-19.99 10.67 -20.98 10.34 -22 10 C-22 9.01 -22 8.02 -22 7 C-21.34 7 -20.68 7 -20 7 C-19.67 6.34 -19.34 5.68 -19 5 C-17.00714063 4.62633887 -15.00636471 4.29259485 -13 4 C-12.67 3.67 -12.34 3.34 -12 3 C-10.33382885 2.95936168 -8.66611905 2.957279 -7 3 C-7 2.34 -7 1.68 -7 1 C-4.53721199 -0.231394 -2.7204945 -0.07159196 0 0 Z " fill="#4D6A14" transform="translate(257,148)"/>
<path d="M0 0 C0 1.32 0 2.64 0 4 C-5.73115109 7.59523599 -10.21017493 9.62964591 -17 10 C-14.07647233 6.81321628 -11.18387159 4.78276705 -7.375 2.75 C-6.41335937 2.22921875 -5.45171875 1.7084375 -4.4609375 1.171875 C-2 0 -2 0 0 0 Z " fill="#57761C" transform="translate(174,97)"/>
<path d="M0 0 C0.33 0 0.66 0 1 0 C1 8.58 1 17.16 1 26 C0.34 25.67 -0.32 25.34 -1 25 C-1.6328125 22.93359375 -1.6328125 22.93359375 -2.125 20.4375 C-2.29257813 19.61121094 -2.46015625 18.78492188 -2.6328125 17.93359375 C-2.81457031 16.97646484 -2.81457031 16.97646484 -3 16 C-2.67 16 -2.34 16 -2 16 C-1.34 10.72 -0.68 5.44 0 0 Z " fill="#567D13" transform="translate(155,172)"/>
<path d="M0 0 C0.33 0.66 0.66 1.32 1 2 C-3.96530996 8.18197531 -9.44719244 13.49569352 -16 18 C-16.66 18 -17.32 18 -18 18 C-17.75 16.125 -17.75 16.125 -17 14 C-14.41847698 12.27898465 -13.15081975 12 -10 12 C-9.67 11.01 -9.34 10.02 -9 9 C-6 6.5 -6 6.5 -3 4 C-2.67 3.01 -2.34 2.02 -2 1 C-1.34 0.67 -0.68 0.34 0 0 Z " fill="#47600F" transform="translate(366,317)"/>
<path d="M0 0 C5.46864457 1.01591421 10.76390013 2.07091057 16 4 C15.01 4.495 15.01 4.495 14 5 C14.66 6.32 15.32 7.64 16 9 C11.92416198 7.7677699 8.61477719 6.22447827 5 4 C3.34630643 3.30177383 1.68272986 2.62501395 0 2 C0 1.34 0 0.68 0 0 Z " fill="#4F760C" transform="translate(328,208)"/>
<path d="M0 0 C0 0.66 0 1.32 0 2 C-1.98 2.66 -3.96 3.32 -6 4 C-6 4.66 -6 5.32 -6 6 C-12.75 10 -12.75 10 -15 10 C-15 8.68 -15 7.36 -15 6 C-12.87717331 4.99539469 -10.75166979 3.99644398 -8.625 3 C-7.44164062 2.443125 -6.25828125 1.88625 -5.0390625 1.3125 C-2 0 -2 0 0 0 Z " fill="#648128" transform="translate(189,90)"/>
<path d="M0 0 C1.79379098 0.44994757 3.58498928 0.91024143 5.375 1.375 C6.37273437 1.63023437 7.37046875 1.88546875 8.3984375 2.1484375 C11 3 11 3 13 5 C12.34 5 11.68 5 11 5 C10.67 5.99 10.34 6.98 10 8 C8.51356155 7.43545368 7.03593984 6.84765111 5.5625 6.25 C4.32693359 5.76273437 4.32693359 5.76273437 3.06640625 5.265625 C1 4 1 4 0.21484375 1.859375 C0.14394531 1.24578125 0.07304687 0.6321875 0 0 Z " fill="#537211" transform="translate(144,389)"/>
<path d="M0 0 C0.33 0.99 0.66 1.98 1 3 C0.67 3.66 0.34 4.32 0 5 C0.20625 5.804375 0.4125 6.60875 0.625 7.4375 C0.74875 8.283125 0.8725 9.12875 1 10 C-0.4375 11.8125 -0.4375 11.8125 -2 13 C-1.67 10.69 -1.34 8.38 -1 6 C-1.99 5.67 -2.98 5.34 -4 5 C-3.67 4.67 -3.34 4.34 -3 4 C-6.02419525 4.58803797 -9.01758453 5.22678118 -12 6 C-12.33 5.34 -12.66 4.68 -13 4 C-11.2097939 3.32942113 -9.41778511 2.6636531 -7.625 2 C-6.62726563 1.62875 -5.62953125 1.2575 -4.6015625 0.875 C-2 0 -2 0 0 0 Z " fill="#708D35" transform="translate(204,84)"/>
<path d="M0 0 C0.66 0.33 1.32 0.66 2 1 C2.625 3.0625 2.625 3.0625 3 5 C2.34 5 1.68 5 1 5 C1 5.66 1 6.32 1 7 C0.01 7.495 0.01 7.495 -1 8 C-1.309375 8.66 -1.61875 9.32 -1.9375 10 C-3 12 -3 12 -6 13 C-4.58707905 8.1725201 -2.57025846 4.2837641 0 0 Z " fill="#546E17" transform="translate(124,138)"/>
<path d="M0 0 C0.99 0 1.98 0 3 0 C0.10933941 10.55808656 0.10933941 10.55808656 -3 15 C-3.97099482 12.37831399 -4.06599958 11.20307562 -3.1875 8.5 C-2.43995665 6.92622453 -1.67183495 5.36190129 -0.875 3.8125 C0.14491636 2.03525867 0.14491636 2.03525867 0 0 Z " fill="#72953E" transform="translate(193,110)"/>
<path d="M0 0 C0.99 0 1.98 0 3 0 C6.61224085 4.54443204 8.77313129 9.66972915 11 15 C7.24033117 13.74677706 6.86850027 12.5605772 4.9375 9.1875 C4.43089844 8.31480469 3.92429687 7.44210937 3.40234375 6.54296875 C2.21202098 4.38447258 1.07937344 2.21555602 0 0 Z " fill="#4B6516" transform="translate(301,251)"/>
<path d="M0 0 C0.8353125 0.556875 0.8353125 0.556875 1.6875 1.125 C1.3575 1.785 1.0275 2.445 0.6875 3.125 C-0.199375 3.269375 -1.08625 3.41375 -2 3.5625 C-5.40868732 3.97595298 -5.40868732 3.97595298 -8.5625 5.75 C-9.47 6.20375 -10.3775 6.6575 -11.3125 7.125 C-11.9725 6.795 -12.6325 6.465 -13.3125 6.125 C-12.508125 5.67125 -11.70375 5.2175 -10.875 4.75 C-8.22393428 3.37774335 -8.22393428 3.37774335 -7.3125 1.125 C-3.07720588 -1.16434817 -3.07720588 -1.16434817 0 0 Z " fill="#536F0F" transform="translate(309.3125,176.875)"/>
<path d="M0 0 C-1.57347176 1.035969 -3.15921546 2.05331732 -4.75 3.0625 C-5.63171875 3.63097656 -6.5134375 4.19945313 -7.421875 4.78515625 C-10 6 -10 6 -12.328125 5.68359375 C-13.15570313 5.34521484 -13.15570313 5.34521484 -14 5 C-12.70903219 4.18639005 -11.41720125 3.37414954 -10.125 2.5625 C-9.04605469 1.88380859 -9.04605469 1.88380859 -7.9453125 1.19140625 C-4.71592036 -0.78643432 -3.63014076 -1.08904223 0 0 Z " fill="#5B731B" transform="translate(214,115)"/>
<path d="M0 0 C5.19209404 -0.21192221 9.126739 0.4087311 14 2 C13.67 2.99 13.34 3.98 13 5 C8.38 4.01 3.76 3.02 -1 2 C-0.67 1.34 -0.34 0.68 0 0 Z " fill="#4F6F1A" transform="translate(258,148)"/>
<path d="M0 0 C0.99 0.33 1.98 0.66 3 1 C3.33 3.97 3.66 6.94 4 10 C3.01 10.495 3.01 10.495 2 11 C2 10.34 2 9.68 2 9 C1.34 8.67 0.68 8.34 0 8 C0.33 7.01 0.66 6.02 1 5 C0.01 5.33 -0.98 5.66 -2 6 C-1.34 4.02 -0.68 2.04 0 0 Z " fill="#516F10" transform="translate(126,253)"/>
<path d="M0 0 C4.42857143 5.14285714 4.42857143 5.14285714 5 9 C3.68 9 2.36 9 1 9 C-0.75 7 -0.75 7 -2 5 C-1.34 5 -0.68 5 0 5 C0 3.35 0 1.7 0 0 Z " fill="#4C651E" transform="translate(292,160)"/>
<path d="M0 0 C1.2065625 0.0309375 1.2065625 0.0309375 2.4375 0.0625 C1.4375 2.0625 1.4375 2.0625 -0.671875 2.9140625 C-1.54328125 3.16929687 -2.4146875 3.42453125 -3.3125 3.6875 C-4.60414063 4.07808594 -4.60414063 4.07808594 -5.921875 4.4765625 C-8.55979006 5.06189868 -10.87051576 5.16901736 -13.5625 5.0625 C-13.2325 4.4025 -12.9025 3.7425 -12.5625 3.0625 C-10.53125 2.46484375 -10.53125 2.46484375 -8.0625 2 C-5.07135333 1.42732793 -2.86699503 0.06992671 0 0 Z " fill="#435D0C" transform="translate(332.5625,339.9375)"/>
<path d="M0 0 C1.65 0 3.3 0 5 0 C5.33 0.66 5.66 1.32 6 2 C7.97888961 2.72693904 9.97954558 3.39816251 12 4 C11.01 4.99 10.02 5.98 9 7 C7.4972763 6.02501855 5.99788037 5.04490611 4.5 4.0625 C3.6646875 3.51722656 2.829375 2.97195313 1.96875 2.41015625 C1.3190625 1.94480469 0.669375 1.47945313 0 1 C0 0.67 0 0.34 0 0 Z " fill="#617D28" transform="translate(124,379)"/>
<path d="M0 0 C0 1.65 0 3.3 0 5 C-1.65 5 -3.3 5 -5 5 C-5.33 3.68 -5.66 2.36 -6 1 C-4 0 -4 0 0 0 Z " fill="#8CA454" transform="translate(135,244)"/>
<path d="M0 0 C4.29 0.66 8.58 1.32 13 2 C13 2.99 13 3.98 13 5 C8.51474352 4.343621 4.33085971 3.29925791 0 2 C0 1.34 0 0.68 0 0 Z " fill="#405D0D" transform="translate(163,303)"/>
<path d="M0 0 C0.66 0 1.32 0 2 0 C2.99 2.97 3.98 5.94 5 9 C6.32 8.67 7.64 8.34 9 8 C8.67 9.32 8.34 10.64 8 12 C4.5659298 10.61482883 3.29977978 9.34555636 1.75 6 C1.41484375 5.29875 1.0796875 4.5975 0.734375 3.875 C0 2 0 2 0 0 Z " fill="#6A803E" transform="translate(396,299)"/>
<path d="M0 0 C-1.24205807 3.72617422 -3.1110675 5.39291457 -6 8 C-6.66 8 -7.32 8 -8 8 C-8.33 7.01 -8.66 6.02 -9 5 C-7.35 4.34 -5.7 3.68 -4 3 C-4 2.34 -4 1.68 -4 1 C-2 0 -2 0 0 0 Z " fill="#51780E" transform="translate(230,349)"/>
<path d="M0 0 C3.26675996 1.08891999 3.95793848 1.84851256 6.0625 4.4375 C7.66078674 6.38553905 9.21573944 8.21573944 11 10 C6.65112719 9.49820698 4.0752046 6.93852884 1 4 C0.125 1.6875 0.125 1.6875 0 0 Z " fill="#4A6817" transform="translate(133,286)"/>
<path d="M0 0 C-0.6875 1.9375 -0.6875 1.9375 -2 4 C-4.4375 4.875 -4.4375 4.875 -7 5 C-7.99 4.34 -8.98 3.68 -10 3 C-8.70990357 2.49596232 -7.41786211 1.99690074 -6.125 1.5 C-5.04605469 1.08234375 -5.04605469 1.08234375 -3.9453125 0.65625 C-2 0 -2 0 0 0 Z " fill="#41600E" transform="translate(303,339)"/>
<path d="M0 0 C0.99 0.33 1.98 0.66 3 1 C1.7391988 2.03319813 0.46596742 3.05124379 -0.8125 4.0625 C-1.87404297 4.91521484 -1.87404297 4.91521484 -2.95703125 5.78515625 C-3.63121094 6.18605469 -4.30539063 6.58695313 -5 7 C-5.99 6.67 -6.98 6.34 -8 6 C-7.67 5.34 -7.34 4.68 -7 4 C-4.4375 3.375 -4.4375 3.375 -2 3 C-2 2.34 -2 1.68 -2 1 C-1.34 0.67 -0.68 0.34 0 0 Z " fill="#475F16" transform="translate(179,232)"/>
<path d="M0 0 C0.33 0.66 0.66 1.32 1 2 C-1.03014771 5.84659566 -3.56941824 9.39603395 -6 13 C-6.33 12.34 -6.66 11.68 -7 11 C-4.95912413 7.06402511 -2.77398263 3.46747828 0 0 Z " fill="#5B8319" transform="translate(138,130)"/>
<path d="M0 0 C0 0.66 0 1.32 0 2 C-0.99 2 -1.98 2 -3 2 C-3.268125 2.94875 -3.53625 3.8975 -3.8125 4.875 C-5 8 -5 8 -8 10 C-8.33 9.34 -8.66 8.68 -9 8 C-8.34 7.34 -7.68 6.68 -7 6 C-6.34 5.01 -5.68 4.02 -5 3 C-2.33333333 0 -2.33333333 0 0 0 Z " fill="#4E710C" transform="translate(198,211)"/>
<path d="M0 0 C2.37948772 0.17625835 3.70225849 0.69719773 5.37890625 2.40234375 C6.62115486 3.90649092 7.81376056 5.45129851 9 7 C7.35 6.67 5.7 6.34 4 6 C4 5.01 4 4.02 4 3 C3.34 3 2.68 3 2 3 C2 2.34 2 1.68 2 1 C1.34 0.67 0.68 0.34 0 0 Z " fill="#45651B" transform="translate(376,189)"/>
<path d="M0 0 C0.66 0 1.32 0 2 0 C1.75 3.375 1.75 3.375 1 7 C-0.98 7.99 -0.98 7.99 -3 9 C-2.01 6.03 -1.02 3.06 0 0 Z " fill="#536E1B" transform="translate(117,152)"/>
<path d="M0 0 C2.94721162 2.74395564 5.19168608 5.38337216 7 9 C6.67 9.66 6.34 10.32 6 11 C3.02753198 8.45217026 1.58464712 5.54659117 0 2 C0 1.34 0 0.68 0 0 Z " fill="#4F6B1E" transform="translate(282,144)"/>
<path d="M0 0 C0.33 0.66 0.66 1.32 1 2 C4.465 1.505 4.465 1.505 8 1 C7.34 2.32 6.68 3.64 6 5 C5.67 4.34 5.34 3.68 5 3 C3.35 3.33 1.7 3.66 0 4 C-0.66 3.01 -1.32 2.02 -2 1 C-1.34 0.67 -0.68 0.34 0 0 Z " fill="#618326" transform="translate(130,361)"/>
<path d="M0 0 C1.32 0.99 2.64 1.98 4 3 C3.67 4.32 3.34 5.64 3 7 C2.34 7 1.68 7 1 7 C0.34 5.02 -0.32 3.04 -1 1 C-0.67 0.67 -0.34 0.34 0 0 Z " fill="#526E0F" transform="translate(312,265)"/>
<path d="M0 0 C2 1 2 1 3.1875 3.8125 C3.96421451 6.85961076 4.10096399 8.13749363 3 11 C2.34 10.67 1.68 10.34 1 10 C0.5859375 7.71484375 0.5859375 7.71484375 0.375 4.9375 C0.30023438 4.01839844 0.22546875 3.09929687 0.1484375 2.15234375 C0.09945313 1.44207031 0.05046875 0.73179687 0 0 Z " fill="#537A10" transform="translate(385,253)"/>
<path d="M0 0 C0.66 0.66 1.32 1.32 2 2 C-0.80804268 4.96404505 -3.18315774 7.44499019 -7 9 C-7 8.34 -7 7.68 -7 7 C-6.34 6.67 -5.68 6.34 -5 6 C-4.67 5.01 -4.34 4.02 -4 3 C-1.9375 1.3125 -1.9375 1.3125 0 0 Z " fill="#536D10" transform="translate(199,120)"/>
<path d="M0 0 C2.475 0.495 2.475 0.495 5 1 C5.68707555 3.49064888 6 5.37886292 6 8 C2.52082818 5.68055212 1.70570234 3.73630036 0 0 Z " fill="#6B8536" transform="translate(390,291)"/>
<path d="M0 0 C3.10551666 3.10551666 3.81323934 4.89198233 5 9 C4.01 9.33 3.02 9.66 2 10 C1.34 6.7 0.68 3.4 0 0 Z " fill="#466218" transform="translate(395,212)"/>
<path d="M0 0 C-3.4352048 2.29013653 -4.985331 2.17842973 -9 2 C-9.33 1.34 -9.66 0.68 -10 0 C-6.42355152 -1.2380014 -3.66305234 -0.74926071 0 0 Z " fill="#536E0B" transform="translate(321,175)"/>
<path d="M0 0 C0.33 1.32 0.66 2.64 1 4 C0.360625 4.12375 -0.27875 4.2475 -0.9375 4.375 C-1.9584375 4.684375 -1.9584375 4.684375 -3 5 C-3.33 5.66 -3.66 6.32 -4 7 C-4.66 6.34 -5.32 5.68 -6 5 C-4.02 3.35 -2.04 1.7 0 0 Z " fill="#506C20" transform="translate(148,112)"/>
<path d="M0 0 C0 1.32 0 2.64 0 4 C-0.7425 3.979375 -1.485 3.95875 -2.25 3.9375 C-4.70462279 3.99328688 -6.66109261 4.3069904 -9 5 C-2.87096774 0 -2.87096774 0 0 0 Z " fill="#5C752A" transform="translate(174,97)"/>
<path d="M0 0 C0.33 0.66 0.66 1.32 1 2 C1.66 2 2.32 2 3 2 C3.33 4.31 3.66 6.62 4 9 C1.27573689 6.64722731 0.1858237 4.37503669 -1 1 C-0.67 0.67 -0.34 0.34 0 0 Z " fill="#4A6318" transform="translate(116,327)"/>
<path d="M0 0 C0.33 0 0.66 0 1 0 C1.25 7.625 1.25 7.625 -1 11 C-2.0257259 6.58937864 -2.03684712 4.07369424 0 0 Z " fill="#496613" transform="translate(373,297)"/>
<path d="M0 0 C1.9375 0.375 1.9375 0.375 4 1 C4.33 1.66 4.66 2.32 5 3 C5.99 3.33 6.98 3.66 8 4 C8 4.99 8 5.98 8 7 C4.2047869 5.50902342 2.38957269 3.24299151 0 0 Z " fill="#688334" transform="translate(380,279)"/>
<path d="M0 0 C1.32 1.32 2.64 2.64 4 4 C3.01 4 2.02 4 1 4 C0.67 4.99 0.34 5.98 0 7 C-0.66 6.67 -1.32 6.34 -2 6 C-1.67 5.34 -1.34 4.68 -1 4 C-1.66 3.67 -2.32 3.34 -3 3 C-2.01 2.67 -1.02 2.34 0 2 C0 1.34 0 0.68 0 0 Z " fill="#547417" transform="translate(372,270)"/>
<path d="M0 0 C1.32 0 2.64 0 4 0 C4.33 1.32 4.66 2.64 5 4 C5.66 4 6.32 4 7 4 C6.67 4.99 6.34 5.98 6 7 C4.02 4.69 2.04 2.38 0 0 Z " fill="#465E15" transform="translate(135,228)"/>
<path d="M0 0 C0.66 0 1.32 0 2 0 C3.16552619 4.19589427 3.08954032 4.82091936 1 9 C0.67 6.03 0.34 3.06 0 0 Z " fill="#4D6417" transform="translate(283,208)"/>
<path d="M0 0 C0 0.66 0 1.32 0 2 C-5.75 5 -5.75 5 -8 5 C-7.67 4.01 -7.34 3.02 -7 2 C-4.56723614 0.81480735 -2.71982714 0 0 0 Z " fill="#6A8336" transform="translate(189,90)"/>
<path d="M0 0 C2.64 0.33 5.28 0.66 8 1 C7.67 1.99 7.34 2.98 7 4 C4.69 3.34 2.38 2.68 0 2 C0 1.34 0 0.68 0 0 Z " fill="#557C12" transform="translate(328,208)"/>
<path d="M0 0 C2.31 0.33 4.62 0.66 7 1 C7.33 1.99 7.66 2.98 8 4 C5.64828869 3.40138258 3.3140622 2.73075648 1 2 C0.67 1.34 0.34 0.68 0 0 Z " fill="#567316" transform="translate(351,175)"/>
</svg>
